<svg xmlns="http://www.w3.org/2000/svg" xmlns:xlink="http://www.w3.org/1999/xlink" version="1.1" id="&#1064;&#1072;&#1088;_1" x="0px" y="0px" width="100px" height="100px" viewBox="0 0 100 100" style="enable-background:new 0 0 100 100;" xml:space="preserve">
<g>
	<path d="M23.568,70.649h0.873c0.362,2.753,2.717,4.879,5.569,4.879c2.853,0,5.208-2.126,5.569-4.879h3.745   c0.362,2.753,2.717,4.879,5.569,4.879s5.208-2.126,5.569-4.879h0.515c0.362,2.753,2.717,4.879,5.569,4.879   c2.422,0,4.486-1.533,5.276-3.68c0.267,0.215,0.604,0.344,0.969,0.344h10.611c10.246,0,15.659-1.835,17.037-5.776   c2.198-6.288-7.499-14.683-17.618-22.743l-0.209-0.167c-10.535-8.392-23.127-8.243-23.938-8.222H7.306   c-0.853,0-1.543,0.691-1.543,1.543s0.691,1.544,1.543,1.544h41.389c0.014,0,0.028,0,0.042-0.001c0.097,0,8.247-0.164,16.578,4.1   c-6.671,1.973,3.819,8.594,8.879,11.811c3.591,2.283,7.319,3.097,9.648,3.385c2.642,2.973,4.357,5.803,3.683,7.731   c-0.484,1.385-2.962,3.708-14.123,3.708h-9.452c-0.954-2.508-3.61-5.82-9.084-5.82h-35.34c-5.321,0-7.383,2.851-8.698,5.82H7.788   c-0.853,0-1.543,0.691-1.543,1.543s0.691,1.543,1.543,1.543h4.068c0.327,0,0.635-0.104,0.89-0.286   c0.806,2.117,2.853,3.622,5.252,3.622C20.852,75.528,23.207,73.402,23.568,70.649z"/>
	<path d="M50.544,46.966c-5.816-3.698-12.003-3.542-12.003-3.542H7.306v15.923c0,0,44.254,0,46.59,0   C70.129,59.347,56.532,50.773,50.544,46.966z"/>
	<path d="M93.244,75.528H56.547H44.894H30.01H17.999H7.575c-0.859,0-1.555,0.696-1.555,1.555s0.696,1.555,1.555,1.555h85.669   c0.859,0,1.555-0.696,1.555-1.555S94.103,75.528,93.244,75.528z"/>
</g>
</svg>